<svg width="15" height="13" viewBox="0 0 15 13" fill="none" xmlns="http://www.w3.org/2000/svg">
<path d="M4.43198 0.656182C0.927985 0.656182 0.655985 3.87218 0.655985 6.57618C0.655985 9.28018 1.05598 12.2242 4.49599 12.2242C7.74399 12.2242 8.22398 9.28018 8.22398 6.60818C8.22398 3.90418 7.96799 0.656182 4.43198 0.656182ZM4.43198 1.87218C6.81599 1.87218 6.76798 4.83218 6.76798 6.51218C6.76798 8.14418 6.78399 11.0242 4.46398 11.0242C2.14398 11.0242 2.09598 8.25618 2.09598 6.57618C2.09598 4.84818 2.04798 1.87218 4.43198 1.87218ZM14.6186 0.672183H13.5466C13.1626 2.36818 11.9626 2.76818 10.2826 2.76818V3.79218H13.1306V12.0002H14.6186V0.672183Z" fill="white" fill-opacity="0.5"/>
</svg>
