<svg width="17" height="12" viewBox="0 0 17 12" fill="none" xmlns="http://www.w3.org/2000/svg">
<path d="M4.43992 0.156182C0.935919 0.156182 0.663919 3.37218 0.663919 6.07618C0.663919 8.78018 1.06392 11.7242 4.50392 11.7242C7.75192 11.7242 8.23192 8.78018 8.23192 6.10818C8.23192 3.40418 7.97592 0.156182 4.43992 0.156182ZM4.43992 1.37218C6.82392 1.37218 6.77592 4.33218 6.77592 6.01218C6.77592 7.64418 6.79192 10.5242 4.47192 10.5242C2.15192 10.5242 2.10392 7.75618 2.10392 6.07618C2.10392 4.34818 2.05592 1.37218 4.43992 1.37218ZM16.6905 10.2682H10.8665C11.1705 8.98818 12.3545 8.34818 13.3945 7.72418C15.0585 6.71618 16.7865 5.66018 16.7865 3.45218C16.7865 1.45218 15.3945 0.156182 13.2505 0.156182C11.0585 0.156182 9.60254 1.64418 9.60254 3.88418V4.18818H10.9785C11.0105 2.78018 11.4905 1.34018 13.1865 1.34018C14.4825 1.34018 15.3785 2.22018 15.3785 3.48418C15.3785 5.13218 13.8905 5.96418 12.6745 6.73218C10.7065 7.96418 9.44254 8.89218 9.29854 11.5002H16.6905V10.2682Z" fill="white" fill-opacity="0.5"/>
</svg>
