<svg width="18" height="12" viewBox="0 0 18 12" fill="none" xmlns="http://www.w3.org/2000/svg">
<path d="M4.43992 0.156182C0.935919 0.156182 0.663919 3.37218 0.663919 6.07618C0.663919 8.78018 1.06392 11.7242 4.50392 11.7242C7.75192 11.7242 8.23192 8.78018 8.23192 6.10818C8.23192 3.40418 7.97592 0.156182 4.43992 0.156182ZM4.43992 1.37218C6.82392 1.37218 6.77592 4.33218 6.77592 6.01218C6.77592 7.64418 6.79192 10.5242 4.47192 10.5242C2.15192 10.5242 2.10392 7.75618 2.10392 6.07618C2.10392 4.34818 2.05592 1.37218 4.43992 1.37218ZM9.63454 3.83618H10.9625C11.0105 2.23618 11.8105 1.34018 13.1705 1.34018C14.3545 1.34018 15.1385 2.07618 15.1385 3.19618C15.1385 4.34818 14.2585 5.06818 12.8505 5.06818C12.6905 5.06818 12.6105 5.06818 12.3865 5.05218V6.20418C12.7225 6.15618 12.8505 6.14018 13.1225 6.14018C14.6585 6.14018 15.6345 6.98818 15.6345 8.31618C15.6345 9.62818 14.6265 10.5242 13.1865 10.5242C11.6825 10.5242 10.7865 9.61218 10.7225 7.99618H9.37854V8.20418C9.37854 10.3642 10.8825 11.7242 13.1705 11.7242C15.4905 11.7242 17.1065 10.3322 17.0905 8.22018C17.0905 6.84418 16.2905 5.78818 15.0105 5.48418C15.9865 5.06818 16.5625 4.18818 16.5625 3.11618C16.5625 1.34018 15.2345 0.156182 13.2345 0.156182C10.9945 0.156182 9.69854 1.48418 9.63454 3.83618Z" fill="white" fill-opacity="0.5"/>
</svg>
