<svg width="18" height="13" viewBox="0 0 18 13" fill="none" xmlns="http://www.w3.org/2000/svg">
<path d="M4.44785 0.656182C0.943854 0.656182 0.671854 3.87218 0.671854 6.57618C0.671854 9.28018 1.07185 12.2242 4.51185 12.2242C7.75985 12.2242 8.23985 9.28018 8.23985 6.60818C8.23985 3.90418 7.98385 0.656182 4.44785 0.656182ZM4.44785 1.87218C6.83185 1.87218 6.78385 4.83218 6.78385 6.51218C6.78385 8.14418 6.79985 11.0242 4.47985 11.0242C2.15985 11.0242 2.11185 8.25618 2.11185 6.57618C2.11185 4.84818 2.06385 1.87218 4.44785 1.87218ZM17.1465 8.11218H15.6105V0.656182H14.5065L9.35448 7.98418V9.26418H14.3305V12.0002H15.6105V9.26418H17.1465V8.11218ZM14.3305 8.11218H10.5545L14.3305 2.65618V8.11218Z" fill="white" fill-opacity="0.5"/>
</svg>
