<svg width="18" height="12" viewBox="0 0 18 12" fill="none" xmlns="http://www.w3.org/2000/svg">
<path d="M4.43992 0.156182C0.935919 0.156182 0.663919 3.37218 0.663919 6.07618C0.663919 8.78018 1.06392 11.7242 4.50392 11.7242C7.75192 11.7242 8.23192 8.78018 8.23192 6.10818C8.23192 3.40418 7.97592 0.156182 4.43992 0.156182ZM4.43992 1.37218C6.82392 1.37218 6.77592 4.33218 6.77592 6.01218C6.77592 7.64418 6.79192 10.5242 4.47192 10.5242C2.15192 10.5242 2.10392 7.75618 2.10392 6.07618C2.10392 4.34818 2.05592 1.37218 4.43992 1.37218ZM16.4345 0.364182H10.8345L9.77854 6.25218L10.9465 6.33218C11.4585 5.59618 12.1945 5.22818 13.1225 5.22818C14.5945 5.22818 15.6025 6.33218 15.6025 7.90018C15.6025 9.42018 14.5465 10.5722 13.1385 10.5722C11.8745 10.5722 10.9465 9.70818 10.8345 8.44418H9.45854C9.52254 10.4282 10.9625 11.7242 13.1225 11.7242C15.4745 11.7242 17.0425 10.0442 17.0425 7.75618C17.0425 5.54818 15.5865 4.04418 13.4585 4.04418C12.5305 4.04418 11.7945 4.26818 11.1705 4.94018L11.8425 1.56418H16.4345V0.364182Z" fill="white" fill-opacity="0.5"/>
</svg>
